<?xml version="1.0" standalone="no"?>
<!DOCTYPE svg PUBLIC "-//W3C//DTD SVG 20010904//EN"
 "http://www.w3.org/TR/2001/REC-SVG-20010904/DTD/svg10.dtd">
<svg version="1.0" xmlns="http://www.w3.org/2000/svg"
 width="230.000000pt" height="230.000000pt" viewBox="0 0 230.000000 230.000000"
 preserveAspectRatio="xMidYMid meet">
<metadata>
Created by potrace 1.14, written by Peter Selinger 2001-2017
</metadata>
<g transform="translate(0.000000,230.000000) scale(0.100000,-0.100000)"
fill="#000000" stroke="none">
<path d="M1050 1954 c-407 -68 -694 -416 -685 -830 15 -602 632 -976 1184
-717 104 49 228 156 305 263 l35 49 -122 75 c-67 41 -127 80 -134 86 -7 5 -15
10 -18 10 -3 0 -23 11 -45 25 -22 14 -40 22 -40 17 0 -12 -81 -95 -120 -124
-37 -27 -150 -73 -150 -61 0 4 -5 2 -12 -5 -7 -7 -17 -8 -30 -1 -10 5 -18 6
-18 1 0 -5 -17 -7 -37 -5 -41 4 -78 11 -78 13 0 1 -8 3 -18 5 -84 16 -211 125
-251 217 -73 167 -41 336 88 463 101 100 242 136 391 101 41 -10 116 -52 154
-87 38 -34 42 -35 62 -11 8 9 49 47 90 83 41 37 100 91 132 121 l59 55 -44 42
c-37 37 -189 145 -207 147 -3 0 -19 6 -36 13 -141 62 -300 81 -455 55z"/>
<path d="M1313 1330 c-41 -16 -42 -83 -1 -96 11 -3 31 0 45 7 49 26 9 109 -44
89z"/>
<path d="M1609 1318 c-18 -3 -37 -4 -42 -1 -9 5 0 -57 14 -93 4 -12 7 -55 6
-95 l-2 -74 30 4 c38 4 98 35 125 64 32 33 51 85 53 147 l2 55 -76 0 c-42 0
-92 -3 -110 -7z"/>
</g>
</svg>
